<svg width="118" height="48" viewBox="0 0 118 48" fill="none" xmlns="http://www.w3.org/2000/svg">
<path d="M49.4788 7.35547H55.2897L44.2161 26.5425H35.6368L30.7578 7.35547H36.7332L40.4609 23.7466L49.4788 7.35547Z" fill="#131416"/>
<path d="M72.9543 7.35547C74.7268 7.35547 76.0973 7.76662 77.0658 8.58892C78.0526 9.41122 78.546 10.5716 78.546 12.07C78.546 14.1166 77.879 15.7155 76.545 16.8667C75.2294 17.9997 73.4386 18.5662 71.1727 18.5662H60.6747L59.3864 26.5425H57.9062L60.9488 7.35547H72.9543ZM71.2549 17.3601C72.9726 17.3601 74.3705 16.9124 75.4486 16.017C76.5268 15.1216 77.0658 13.8699 77.0658 12.2619C77.0658 11.0741 76.6729 10.1696 75.8872 9.54827C75.1014 8.9087 74.0233 8.58892 72.6528 8.58892H62.237L60.8391 17.3601H71.2549Z" fill="#131416"/>
<path d="M88.7754 11.8507C91.2241 11.8507 92.9874 12.2984 94.0656 13.1938C95.162 14.0892 95.5823 15.3318 95.3264 16.9216L93.7915 26.5425H92.558L93.1336 23.0066C92.3844 24.2126 91.2332 25.1628 89.68 25.8572C88.145 26.5333 86.336 26.8714 84.2528 26.8714C80.3606 26.8714 78.4145 25.6927 78.4145 23.3355C78.4145 20.5762 81.1555 19.0138 86.6375 18.6484L93.7367 18.155L93.9833 16.6749C94.1661 15.615 93.8097 14.7288 92.9144 14.0161C92.019 13.2852 90.5845 12.9197 88.611 12.9197C86.9298 12.9197 85.4771 13.1938 84.2528 13.742C83.0468 14.2902 82.2519 15.1125 81.8681 16.2089H80.4976C80.9179 14.7653 81.859 13.678 83.3209 12.9471C84.7827 12.2162 86.6009 11.8507 88.7754 11.8507ZM84.7188 25.8024C87.1674 25.8024 89.1592 25.2999 90.6941 24.2948C92.2291 23.2715 93.1336 21.9193 93.4077 20.2382L93.5722 19.1966L86.6375 19.6625C82.0691 19.9366 79.785 21.0879 79.785 23.1162C79.785 23.9202 80.187 24.5689 80.991 25.0623C81.795 25.5557 83.0376 25.8024 84.7188 25.8024Z" fill="#131416"/>
<path d="M114.829 12.1796H116.474L105.126 28.5982C104.103 30.1149 103.244 31.1199 102.55 31.6133C101.855 32.1067 100.777 32.3534 99.3152 32.3534C98.6757 32.3534 98.1 32.3168 97.5884 32.2437L97.7803 31.1473C98.2736 31.2022 98.8036 31.2296 99.37 31.2296C100.412 31.2296 101.216 31.0377 101.782 30.6539C102.349 30.2702 103.034 29.4936 103.838 28.3241L105.044 26.5425H104.523L98.3285 12.1796H99.8908L105.647 25.8572L114.829 12.1796Z" fill="#131416"/>
<path d="M0 18.2666L1.28064 15.207H16.6909C17.5357 15.207 18.2206 15.8919 18.2206 16.7368C18.2206 17.5817 17.5357 18.2666 16.6909 18.2666H0Z" fill="#1C77FF"/>
<path d="M8.95053 12.0152L10.9009 7.35547H16.9514C20.3137 7.35547 22.9359 8.06813 24.8181 9.49345C26.7185 10.9005 27.6687 12.9106 27.6687 15.5236C27.6687 18.9956 26.417 21.7 23.9135 23.637C21.4101 25.574 18.0752 26.5425 13.9089 26.5425H3.10938L3.25548 25.6211L4.82209 21.8783L9.55143 21.8783L9.55072 21.8828H14.0734C16.6316 21.8828 18.5869 21.3894 19.9391 20.4026C21.2913 19.4159 21.9674 18.0271 21.9674 16.2363C21.9674 14.8841 21.4284 13.8425 20.3503 13.1116C19.2721 12.3806 17.6915 12.0152 15.6083 12.0152H11.1131L11.113 12.016C11.0934 12.0154 11.0738 12.0151 11.0541 12.0151L8.95053 12.0152Z" fill="#131416"/>
<path d="M30.9081 42.5919C30.5289 42.5919 30.178 42.5303 29.8556 42.407C29.538 42.279 29.2606 42.1012 29.0236 41.8736C28.7913 41.6413 28.6087 41.3711 28.476 41.0629C28.3432 40.7547 28.2769 40.4158 28.2769 40.046C28.2769 39.6762 28.3432 39.3372 28.476 39.029C28.6087 38.7208 28.7936 38.453 29.0307 38.2254C29.2677 37.9931 29.5451 37.8153 29.8627 37.692C30.1851 37.564 30.536 37.5 30.9153 37.5C31.2993 37.5 31.6525 37.5664 31.9749 37.6991C32.302 37.8271 32.5794 38.0191 32.8069 38.2752L32.3447 38.7232C32.1551 38.5241 31.9417 38.3771 31.7047 38.2823C31.4676 38.1827 31.2139 38.1329 30.9437 38.1329C30.664 38.1329 30.4032 38.1803 30.1614 38.2752C29.9244 38.37 29.7181 38.5027 29.5427 38.6734C29.3673 38.8441 29.2298 39.048 29.1302 39.285C29.0354 39.5173 28.988 39.771 28.988 40.046C28.988 40.3209 29.0354 40.577 29.1302 40.814C29.2298 41.0463 29.3673 41.2478 29.5427 41.4185C29.7181 41.5892 29.9244 41.7219 30.1614 41.8167C30.4032 41.9116 30.664 41.959 30.9437 41.959C31.2139 41.959 31.4676 41.9116 31.7047 41.8167C31.9417 41.7172 32.1551 41.5655 32.3447 41.3616L32.8069 41.8096C32.5794 42.0657 32.302 42.26 31.9749 42.3928C31.6525 42.5255 31.2969 42.5919 30.9081 42.5919Z" fill="#858688"/>
<path d="M43.7384 42.407C44.0608 42.5303 44.4117 42.5919 44.791 42.5919C45.1797 42.5919 45.5353 42.5255 45.8577 42.3928C46.1848 42.26 46.4622 42.0657 46.6898 41.8096L46.2275 41.3616C46.0379 41.5655 45.8245 41.7172 45.5875 41.8167C45.3504 41.9116 45.0968 41.959 44.8265 41.959C44.5468 41.959 44.286 41.9116 44.0442 41.8167C43.8072 41.7219 43.601 41.5892 43.4255 41.4185C43.2501 41.2478 43.1126 41.0463 43.0131 40.814C42.9182 40.577 42.8708 40.3209 42.8708 40.046C42.8708 39.771 42.9182 39.5173 43.0131 39.285C43.1126 39.048 43.2501 38.8441 43.4255 38.6734C43.601 38.5027 43.8072 38.37 44.0442 38.2752C44.286 38.1803 44.5468 38.1329 44.8265 38.1329C45.0968 38.1329 45.3504 38.1827 45.5875 38.2823C45.8245 38.3771 46.0379 38.5241 46.2275 38.7232L46.6898 38.2752C46.4622 38.0191 46.1848 37.8271 45.8577 37.6991C45.5353 37.5664 45.1821 37.5 44.7981 37.5C44.4188 37.5 44.068 37.564 43.7456 37.692C43.4279 37.8153 43.1506 37.9931 42.9135 38.2254C42.6764 38.453 42.4915 38.7208 42.3588 39.029C42.226 39.3372 42.1597 39.6762 42.1597 40.046C42.1597 40.4158 42.226 40.7547 42.3588 41.0629C42.4915 41.3711 42.6741 41.6413 42.9064 41.8736C43.1434 42.1012 43.4208 42.279 43.7384 42.407Z" fill="#858688"/>
<path fill-rule="evenodd" clip-rule="evenodd" d="M68.5774 42.5919C68.1981 42.5919 67.8449 42.5279 67.5178 42.3999C67.1954 42.2719 66.9157 42.0941 66.6786 41.8665C66.4416 41.6342 66.2567 41.364 66.1239 41.0558C65.9912 40.7476 65.9248 40.411 65.9248 40.046C65.9248 39.6809 65.9912 39.3443 66.1239 39.0361C66.2567 38.7279 66.4416 38.4601 66.6786 38.2325C66.9157 38.0002 67.1954 37.82 67.5178 37.692C67.8402 37.564 68.1934 37.5 68.5774 37.5C68.9567 37.5 69.3052 37.564 69.6228 37.692C69.9452 37.8153 70.225 37.9931 70.462 38.2254C70.7038 38.453 70.8887 38.7208 71.0167 39.029C71.1495 39.3372 71.2158 39.6762 71.2158 40.046C71.2158 40.4158 71.1495 40.7547 71.0167 41.0629C70.8887 41.3711 70.7038 41.6413 70.462 41.8736C70.225 42.1012 69.9452 42.279 69.6228 42.407C69.3052 42.5303 68.9567 42.5919 68.5774 42.5919ZM68.5774 41.959C68.8524 41.959 69.1061 41.9116 69.3384 41.8167C69.5754 41.7219 69.7793 41.5892 69.95 41.4185C70.1254 41.2431 70.2605 41.0392 70.3553 40.8069C70.4549 40.5746 70.5047 40.3209 70.5047 40.046C70.5047 39.771 70.4549 39.5173 70.3553 39.285C70.2605 39.0527 70.1254 38.8512 69.95 38.6805C69.7793 38.5051 69.5754 38.37 69.3384 38.2752C69.1061 38.1803 68.8524 38.1329 68.5774 38.1329C68.2977 38.1329 68.0393 38.1803 67.8023 38.2752C67.57 38.37 67.3661 38.5051 67.1907 38.6805C67.0153 38.8512 66.8778 39.0527 66.7782 39.285C66.6834 39.5173 66.636 39.771 66.636 40.046C66.636 40.3209 66.6834 40.5746 66.7782 40.8069C66.8778 41.0392 67.0153 41.2431 67.1907 41.4185C67.3661 41.5892 67.57 41.7219 67.8023 41.8167C68.0393 41.9116 68.2977 41.959 68.5774 41.959Z" fill="#858688"/>
<path d="M93.1616 42.5919C92.7823 42.5919 92.4314 42.5303 92.1091 42.407C91.7914 42.279 91.514 42.1012 91.277 41.8736C91.0447 41.6413 90.8621 41.3711 90.7294 41.0629C90.5966 40.7547 90.5303 40.4158 90.5303 40.046C90.5303 39.6762 90.5966 39.3372 90.7294 39.029C90.8621 38.7208 91.0471 38.453 91.2841 38.2254C91.5212 37.9931 91.7985 37.8153 92.1162 37.692C92.4386 37.564 92.7894 37.5 93.1687 37.5C93.5527 37.5 93.9059 37.5664 94.2283 37.6991C94.5554 37.8271 94.8328 38.0191 95.0604 38.2752L94.5981 38.7232C94.4085 38.5241 94.1951 38.3771 93.9581 38.2823C93.721 38.1827 93.4674 38.1329 93.1971 38.1329C92.9174 38.1329 92.6566 38.1803 92.4149 38.2752C92.1778 38.37 91.9716 38.5027 91.7961 38.6734C91.6207 38.8441 91.4832 39.048 91.3837 39.285C91.2888 39.5173 91.2414 39.771 91.2414 40.046C91.2414 40.3209 91.2888 40.577 91.3837 40.814C91.4832 41.0463 91.6207 41.2478 91.7961 41.4185C91.9716 41.5892 92.1778 41.7219 92.4149 41.8167C92.6566 41.9116 92.9174 41.959 93.1971 41.959C93.4674 41.959 93.721 41.9116 93.9581 41.8167C94.1951 41.7172 94.4085 41.5655 94.5981 41.3616L95.0604 41.8096C94.8328 42.0657 94.5554 42.26 94.2283 42.3928C93.9059 42.5255 93.5503 42.5919 93.1616 42.5919Z" fill="#858688"/>
<path d="M100.356 37.5569H99.6447V39.6975H96.7859V37.5569H96.0747V42.535H96.7859V40.3162H99.6447V42.535H100.356V37.5569Z" fill="#858688"/>
<path fill-rule="evenodd" clip-rule="evenodd" d="M101.092 42.535L103.346 37.5569H104.05L106.312 42.535H105.565L105.018 41.2905H102.371L101.824 42.535H101.092ZM103.695 38.2788L104.768 40.7216H102.621L103.695 38.2788Z" fill="#858688"/>
<path d="M107.055 37.5569V42.535H107.766V38.8256L110.753 42.535H111.336V37.5569H110.625V41.2663L107.638 37.5569H107.055Z" fill="#858688"/>
<path d="M113.814 38.1756V42.535H114.518V38.1756H116.225V37.5569H112.107V38.1756H113.814Z" fill="#858688"/>
<path fill-rule="evenodd" clip-rule="evenodd" d="M85.769 37.5569V42.535H86.4802V41.0202H87.7105C87.8199 41.0202 87.9253 41.0159 88.0266 41.0073L89.0973 42.535H89.8724L88.6915 40.8686C88.738 40.8518 88.7831 40.8336 88.827 40.814C89.1352 40.6765 89.3723 40.4798 89.5382 40.2237C89.7041 39.963 89.7871 39.6524 89.7871 39.2921C89.7871 38.9318 89.7041 38.6213 89.5382 38.3605C89.3723 38.0997 89.1352 37.9006 88.827 37.7631C88.5189 37.6256 88.1467 37.5569 87.7105 37.5569H85.769ZM86.4802 40.4158H87.6892C88.1443 40.4158 88.488 40.3186 88.7204 40.1242C88.9574 39.9251 89.0759 39.6477 89.0759 39.2921C89.0759 38.9365 88.9574 38.6616 88.7204 38.4672C88.488 38.2728 88.1443 38.1756 87.6892 38.1756H86.4802V40.4158Z" fill="#858688"/>
<path d="M81.7156 41.9163V40.3091H84.2117V39.7046H81.7156V38.1756H84.5175V37.5569H81.0044V42.535H84.6171V41.9163H81.7156Z" fill="#858688"/>
<path d="M74.2124 37.5569V42.535H74.8951V38.9275L76.6944 41.9305H77.0215L78.8212 38.9049L78.8278 42.535H79.5105L79.5034 37.5569H78.9203L76.8711 41.0536L74.7956 37.5569H74.2124Z" fill="#858688"/>
<path d="M63.2141 38.1756V42.535H63.9182V38.1756H65.6249V37.5569H61.5073V38.1756H63.2141Z" fill="#858688"/>
<path fill-rule="evenodd" clip-rule="evenodd" d="M57.3223 42.535V37.5569H59.2637C59.6999 37.5569 60.0721 37.6256 60.3803 37.7631C60.6884 37.9006 60.9255 38.0997 61.0914 38.3605C61.2574 38.6213 61.3403 38.9318 61.3403 39.2921C61.3403 39.6524 61.2574 39.963 61.0914 40.2237C60.9255 40.4798 60.6884 40.6789 60.3803 40.8211C60.0721 40.9586 59.6999 41.0273 59.2637 41.0273H58.0334V42.535H57.3223ZM59.2424 40.4086H58.0334V38.1756H59.2424C59.6975 38.1756 60.0413 38.2728 60.2736 38.4672C60.5106 38.6616 60.6292 38.9365 60.6292 39.2921C60.6292 39.6477 60.5106 39.9227 60.2736 40.1171C60.0413 40.3114 59.6975 40.4086 59.2424 40.4086Z" fill="#858688"/>
<path d="M54.0029 40.8016V42.535H54.707V40.8124L56.684 37.5569H55.9799L54.3802 40.1832L52.7868 37.5569H52.0259L54.0029 40.8016Z" fill="#858688"/>
<path fill-rule="evenodd" clip-rule="evenodd" d="M47.7041 42.535V37.5569H49.6456C50.0817 37.5569 50.4539 37.6256 50.7621 37.7631C51.0703 37.9006 51.3073 38.0997 51.4733 38.3605C51.6392 38.6213 51.7222 38.9318 51.7222 39.2921C51.7222 39.6524 51.6392 39.963 51.4733 40.2237C51.3073 40.4798 51.0703 40.6765 50.7621 40.814C50.7182 40.8336 50.673 40.8518 50.6265 40.8686L51.8075 42.535H51.0323L49.9617 41.0073C49.8604 41.0159 49.755 41.0202 49.6456 41.0202H48.4153V42.535H47.7041ZM49.6242 40.4158H48.4153V38.1756H49.6242C50.0794 38.1756 50.4231 38.2728 50.6554 38.4672C50.8925 38.6616 51.011 38.9365 51.011 39.2921C51.011 39.6477 50.8925 39.9251 50.6554 40.1242C50.4231 40.3186 50.0794 40.4158 49.6242 40.4158Z" fill="#858688"/>
<path d="M37.5913 40.8779V40.2876H39.5043V40.8779H37.5913Z" fill="#858688"/>
<path d="M33.8213 37.5569V42.535H34.5324V37.5569H33.8213Z" fill="#858688"/>
<path d="M22.9111 37.5569V42.535H23.6223V38.8256L26.6092 42.535H27.1923V37.5569H26.4812V41.2663L23.4943 37.5569H22.9111Z" fill="#858688"/>
<path d="M20.7095 42.535V37.5569H21.4206V42.535H20.7095Z" fill="#858688"/>
<path d="M14.9966 37.5569L17.187 42.535H17.891L20.0743 37.5569H19.3631L17.5575 41.6495L15.7646 37.5569H14.9966Z" fill="#858688"/>
<path fill-rule="evenodd" clip-rule="evenodd" d="M10.0518 42.535L12.3061 37.5569H13.0102L15.2717 42.535H14.525L13.9781 41.2905H11.3312L10.7843 42.535H10.0518ZM12.6546 38.2788L13.7281 40.7216H11.5812L12.6546 38.2788Z" fill="#858688"/>
<path fill-rule="evenodd" clip-rule="evenodd" d="M5 37.5569V42.535H7.09792C7.62892 42.535 8.09592 42.4307 8.49891 42.2221C8.90664 42.0135 9.22192 41.7219 9.44475 41.3474C9.67233 40.9728 9.78611 40.539 9.78611 40.0459C9.78611 39.5529 9.67233 39.1191 9.44475 38.7445C9.22192 38.37 8.90664 38.0784 8.49891 37.8698C8.09592 37.6612 7.62892 37.5569 7.09792 37.5569H5ZM7.05525 41.9163H5.71116V38.1756H7.05525C7.46773 38.1756 7.82331 38.2538 8.122 38.4103C8.42542 38.5667 8.66011 38.7848 8.82604 39.0645C8.99198 39.3443 9.07495 39.6714 9.07495 40.0459C9.07495 40.4158 8.99198 40.7429 8.82604 41.0273C8.66011 41.3071 8.42542 41.5252 8.122 41.6816C7.82331 41.8381 7.46773 41.9163 7.05525 41.9163Z" fill="#858688"/>
</svg>
