<svg width="32" height="32" viewBox="0 0 32 32" fill="none" xmlns="http://www.w3.org/2000/svg">
<path d="M11.4297 20.3601L20.1497 11.6401" stroke="#808080" stroke-width="1.5" stroke-linecap="round" stroke-linejoin="round"/>
<path d="M11.976 13.8269C12.8817 13.8269 13.6159 13.0926 13.6159 12.1869C13.6159 11.2811 12.8817 10.5469 11.976 10.5469C11.0702 10.5469 10.3359 11.2811 10.3359 12.1869C10.3359 13.0926 11.0702 13.8269 11.976 13.8269Z" stroke="#808080" stroke-width="1.5" stroke-linecap="round" stroke-linejoin="round"/>
<path d="M20.6947 21.4533C21.6004 21.4533 22.3347 20.7191 22.3347 19.8133C22.3347 18.9076 21.6004 18.1733 20.6947 18.1733C19.7889 18.1733 19.0547 18.9076 19.0547 19.8133C19.0547 20.7191 19.7889 21.4533 20.6947 21.4533Z" stroke="#808080" stroke-width="1.5" stroke-linecap="round" stroke-linejoin="round"/>
<path d="M15.9974 29.3332C23.3612 29.3332 29.3307 23.3636 29.3307 15.9998C29.3307 8.63604 23.3612 2.6665 15.9974 2.6665C8.6336 2.6665 2.66406 8.63604 2.66406 15.9998C2.66406 23.3636 8.6336 29.3332 15.9974 29.3332Z" stroke="#808080" stroke-width="1.5" stroke-linecap="round" stroke-linejoin="round"/>
</svg>
