<svg width="40" height="40" viewBox="0 0 40 40" fill="none" xmlns="http://www.w3.org/2000/svg">
<rect width="40" height="40" rx="20" fill="url(#paint0_linear_509_76972)"/>
<path d="M12.9757 9.19588C13.7102 9.39619 14.4447 9.52973 15.1792 9.73005C15.9137 9.93036 16.6481 10.0639 17.3826 10.2642C17.5829 10.331 17.6497 10.2642 17.7165 10.0639C17.9836 8.92879 18.2506 7.86046 18.5177 6.72535C18.5845 6.52504 18.6513 6.45827 18.8516 6.52504C19.5193 6.72535 20.1202 6.85889 20.7879 6.99244C20.9883 7.05921 20.9883 7.12598 20.9215 7.25952C20.6544 8.32786 20.3873 9.46296 20.1202 10.5313C20.1202 10.5981 20.1202 10.6648 20.0535 10.7984C20.5876 10.9319 21.1886 11.0655 21.7227 11.199C21.7895 11.199 21.8563 11.0655 21.9231 10.9987C22.1234 10.1307 22.3237 9.32942 22.5908 8.4614C22.6575 8.19431 22.7243 7.92723 22.7911 7.66015C22.7911 7.5266 22.8578 7.45983 22.9914 7.5266C23.6591 7.72692 24.3268 7.86046 25.0613 8.06077C25.1281 8.06077 25.1281 8.12754 25.1948 8.12754C24.9945 8.99557 24.7942 9.79682 24.5939 10.5981C24.5271 10.9319 24.4604 11.2658 24.3268 11.5996C24.26 11.7999 24.3268 11.8667 24.5271 11.9335C25.2616 12.2673 25.9961 12.6012 26.7306 12.9351C27.3983 13.3357 27.9992 13.8698 28.4666 14.5376C29.0675 15.5391 29.1343 16.6075 28.8672 17.6758C28.6669 18.4103 28.3998 19.078 27.8657 19.6122C27.465 20.0128 26.9309 20.2799 26.3967 20.4802C26.3299 20.4802 26.2632 20.5469 26.1296 20.5469C26.3967 20.7473 26.6638 20.8808 26.9309 21.0811C27.7321 21.6821 28.2663 22.4165 28.5334 23.3513C28.6669 24.0858 28.6002 24.8871 28.3998 25.6215C28.1328 26.5563 27.7989 27.3576 27.198 28.0921C26.4635 28.9601 25.5287 29.4275 24.4603 29.561C23.0582 29.7613 21.7227 29.6278 20.3873 29.4275C20.187 29.3607 20.0535 29.4275 19.9867 29.6278C19.7196 30.6961 19.4525 31.8312 19.1854 32.8996C19.1187 33.1667 19.1187 33.2334 18.7848 33.0999C18.1839 32.9664 17.5162 32.766 16.9152 32.6325C16.7149 32.5657 16.7149 32.499 16.7817 32.3654C17.0488 31.2303 17.3159 30.0952 17.6497 29.0269C17.6497 28.8933 17.7165 28.8266 17.5829 28.7598C17.0488 28.6262 16.5146 28.4927 15.9137 28.3592C15.7801 28.9601 15.5798 29.561 15.4463 30.162C15.3127 30.7629 15.1124 31.3638 14.9789 31.9648C14.9121 32.0983 14.9121 32.1651 14.7118 32.0983C14.0441 31.898 13.3764 31.7645 12.7087 31.6309C12.5083 31.5642 12.5083 31.4974 12.5751 31.3638C12.8422 30.2287 13.1093 29.0936 13.4431 28.0253C13.4431 27.9585 13.5099 27.8918 13.5099 27.7582C11.9742 27.3576 10.4384 26.957 8.83594 26.5563C8.96948 26.2893 9.03625 26.0889 9.16979 25.8219C9.43688 25.2209 9.70396 24.62 9.90427 24.0858C9.97104 23.8855 10.0378 23.8855 10.2381 23.8855C10.7055 24.019 11.2397 24.1526 11.7071 24.2194C12.2413 24.3529 12.6419 24.0858 12.7087 23.6184C13.5767 20.2131 14.4447 16.8078 15.246 13.3357C15.3795 12.8015 15.0456 12.2006 14.4447 12.0003C13.8438 11.7999 13.2428 11.6664 12.7087 11.5329C12.5751 11.5329 12.5083 11.4661 12.5751 11.3326C12.7754 10.5981 12.9757 9.79682 13.1761 9.06234C12.909 9.26265 12.909 9.26265 12.9757 9.19588ZM16.3811 25.6883C16.4478 25.6883 16.5146 25.7551 16.5146 25.7551C17.5829 26.0222 18.718 26.356 19.8532 26.4228C20.6544 26.4896 21.3889 26.4896 22.1234 26.2225C23.392 25.8219 23.9262 24.1526 23.1917 23.0842C22.8578 22.5501 22.3237 22.2162 21.7895 21.8824C20.5876 21.2147 19.1854 20.9476 17.85 20.6805C17.6497 20.6137 17.6497 20.6805 17.5829 20.8808C17.4494 21.5485 17.2491 22.1495 17.1155 22.8172C16.8485 23.752 16.6481 24.6867 16.3811 25.6883ZM21.9898 18.8777C22.1234 18.8777 22.4572 18.8109 22.7243 18.7441C23.993 18.477 24.6607 17.0081 23.993 15.873C23.6591 15.272 23.0582 14.8714 22.4572 14.6043C21.5224 14.2037 20.5876 14.0034 19.5861 13.7363C19.3858 13.6695 19.319 13.7363 19.2522 13.9366C18.9184 15.3388 18.5845 16.6742 18.1839 18.0764C18.1171 18.21 18.1839 18.2767 18.3174 18.3435C18.5845 18.4103 18.7848 18.477 19.0519 18.5438C20.0535 18.6774 20.9215 18.8777 21.9898 18.8777Z" fill="white"/>
<defs>
<linearGradient id="paint0_linear_509_76972" x1="20" y1="0" x2="20" y2="40" gradientUnits="userSpaceOnUse">
<stop stop-color="#F5B300"/>
<stop offset="1" stop-color="#F58400" stop-opacity="0.93"/>
</linearGradient>
</defs>
</svg>
