<svg width="40" height="40" viewBox="0 0 40 40" fill="none" xmlns="http://www.w3.org/2000/svg">
<rect width="40" height="40" rx="20" fill="url(#paint0_linear_509_76973)"/>
<g clip-path="url(#clip0_509_76973)">
<path d="M20.0001 5L19.8047 5.64548V24.3759L20.0001 24.5655L28.9448 19.4262L20.0001 5Z" fill="#343434"/>
<path d="M19.9994 5L11.0547 19.4262L19.9994 24.5656V15.4744V5Z" fill="#8C8C8C"/>
<path d="M20.0007 26.2119L19.8906 26.3423V33.0145L20.0007 33.3271L28.9508 21.0752L20.0007 26.2119Z" fill="#3C3C3B"/>
<path d="M19.9994 33.3267V26.2114L11.0547 21.0747L19.9994 33.3267Z" fill="#8C8C8C"/>
<path d="M20 24.5657L28.9446 19.4265L20 15.4746V24.5657Z" fill="#141414"/>
<path d="M11.0547 19.4265L19.9993 24.5657V15.4746L11.0547 19.4265Z" fill="#393939"/>
</g>
<defs>
<linearGradient id="paint0_linear_509_76973" x1="20" y1="0" x2="20" y2="40" gradientUnits="userSpaceOnUse">
<stop stop-color="#E9E9E9"/>
<stop offset="1" stop-color="#D5D5D5"/>
</linearGradient>
<clipPath id="clip0_509_76973">
<rect width="17.8947" height="28.3333" fill="white" transform="translate(11.0547 5)"/>
</clipPath>
</defs>
</svg>
