<svg width="40" height="40" viewBox="0 0 40 40" fill="none" xmlns="http://www.w3.org/2000/svg">
<rect width="40" height="40" rx="20" fill="url(#paint0_linear_509_76974)"/>
<path d="M18.7498 25.5143C22.5236 25.5855 26.2283 25.6547 30.0021 25.7952C29.8638 26.3551 29.7235 26.8437 29.6544 27.3344C29.4429 28.0347 29.2335 28.6658 29.0952 29.3662C29.0241 29.7164 28.8838 29.7856 28.5361 29.7856H10.5026C11.133 27.3344 11.7613 25.0256 12.3896 22.5744C11.4115 22.9245 10.5718 23.2747 9.59375 23.6941C9.87435 22.6456 10.1529 21.7355 10.5026 20.7542C10.5026 20.6158 10.7121 20.5445 10.8524 20.5445C11.4827 20.2656 12.1801 20.0539 12.8084 19.773C13.0178 19.7057 13.2293 19.496 13.2293 19.2843L16.1613 8.36555C16.2325 7.94613 16.3708 7.80566 16.8608 7.80566H23.221C22.4524 10.6743 21.753 13.547 20.9844 16.5561C22.1027 16.0674 23.1519 15.646 24.3393 15.2266C24.199 15.7865 23.9896 16.2752 23.9205 16.7658C23.7802 17.8876 23.1519 18.5167 22.0336 18.7976C21.5456 18.9361 21.0535 19.1458 20.5655 19.3575C20.3922 19.4612 20.2482 19.6054 20.1466 19.7769C19.6566 21.6663 19.1666 23.4864 18.7477 25.3758V25.5162L18.7498 25.5143Z" fill="white"/>
<defs>
<linearGradient id="paint0_linear_509_76974" x1="20" y1="0" x2="20" y2="40" gradientUnits="userSpaceOnUse">
<stop stop-color="#CCCCCC"/>
<stop offset="1" stop-color="#B5B5B5"/>
</linearGradient>
</defs>
</svg>
